<svg id="visual" viewBox="0 0 900 600" width="900" height="600" xmlns="http://www.w3.org/2000/svg" xmlns:xlink="http://www.w3.org/1999/xlink" version="1.1"><rect x="0" y="0" width="900" height="600" fill="#F0A202"></rect><path d="M0 245L21.5 239C43 233 86 221 128.8 208C171.7 195 214.3 181 257.2 173.8C300 166.7 343 166.3 385.8 170.7C428.7 175 471.3 184 514.2 194.8C557 205.7 600 218.3 642.8 213.7C685.7 209 728.3 187 771.2 173.7C814 160.3 857 155.7 878.5 153.3L900 151L900 0L878.5 0C857 0 814 0 771.2 0C728.3 0 685.7 0 642.8 0C600 0 557 0 514.2 0C471.3 0 428.7 0 385.8 0C343 0 300 0 257.2 0C214.3 0 171.7 0 128.8 0C86 0 43 0 21.5 0L0 0Z" fill="#f0a202"></path><path d="M0 126L21.5 135.3C43 144.7 86 163.3 128.8 175C171.7 186.7 214.3 191.3 257.2 185.3C300 179.3 343 162.7 385.8 160.7C428.7 158.7 471.3 171.3 514.2 169C557 166.7 600 149.3 642.8 146.7C685.7 144 728.3 156 771.2 158.2C814 160.3 857 152.7 878.5 148.8L900 145L900 0L878.5 0C857 0 814 0 771.2 0C728.3 0 685.7 0 642.8 0C600 0 557 0 514.2 0C471.3 0 428.7 0 385.8 0C343 0 300 0 257.2 0C214.3 0 171.7 0 128.8 0C86 0 43 0 21.5 0L0 0Z" fill="#e46345"></path><path d="M0 145L21.5 138.3C43 131.7 86 118.3 128.8 117.3C171.7 116.3 214.3 127.7 257.2 134.7C300 141.7 343 144.3 385.8 139.5C428.7 134.7 471.3 122.3 514.2 112.5C557 102.7 600 95.3 642.8 101.5C685.7 107.7 728.3 127.3 771.2 135.3C814 143.3 857 139.7 878.5 137.8L900 136L900 0L878.5 0C857 0 814 0 771.2 0C728.3 0 685.7 0 642.8 0C600 0 557 0 514.2 0C471.3 0 428.7 0 385.8 0C343 0 300 0 257.2 0C214.3 0 171.7 0 128.8 0C86 0 43 0 21.5 0L0 0Z" fill="#ae3f61"></path><path d="M0 68L21.5 67C43 66 86 64 128.8 66.3C171.7 68.7 214.3 75.3 257.2 82.5C300 89.7 343 97.3 385.8 102.7C428.7 108 471.3 111 514.2 109.5C557 108 600 102 642.8 94.8C685.7 87.7 728.3 79.3 771.2 75.5C814 71.7 857 72.3 878.5 72.7L900 73L900 0L878.5 0C857 0 814 0 771.2 0C728.3 0 685.7 0 642.8 0C600 0 557 0 514.2 0C471.3 0 428.7 0 385.8 0C343 0 300 0 257.2 0C214.3 0 171.7 0 128.8 0C86 0 43 0 21.5 0L0 0Z" fill="#63335e"></path><path d="M0 49L21.5 53.2C43 57.3 86 65.7 128.8 63.5C171.7 61.3 214.3 48.7 257.2 40.5C300 32.3 343 28.7 385.8 33.2C428.7 37.7 471.3 50.3 514.2 50.5C557 50.7 600 38.3 642.8 36.2C685.7 34 728.3 42 771.2 45.8C814 49.7 857 49.3 878.5 49.2L900 49L900 0L878.5 0C857 0 814 0 771.2 0C728.3 0 685.7 0 642.8 0C600 0 557 0 514.2 0C471.3 0 428.7 0 385.8 0C343 0 300 0 257.2 0C214.3 0 171.7 0 128.8 0C86 0 43 0 21.5 0L0 0Z" fill="#22223b"></path></svg>