<svg id="visual" viewBox="0 0 900 450" width="900" height="450" xmlns="http://www.w3.org/2000/svg" xmlns:xlink="http://www.w3.org/1999/xlink" version="1.1"><rect x="0" y="0" width="900" height="450" fill="#22223B"></rect><path d="M0 265L21.5 269.5C43 274 86 283 128.8 292.7C171.7 302.3 214.3 312.7 257.2 318C300 323.3 343 323.7 385.8 320.5C428.7 317.3 471.3 310.7 514.2 302.5C557 294.3 600 284.7 642.8 288.2C685.7 291.7 728.3 308.3 771.2 318.3C814 328.3 857 331.7 878.5 333.3L900 335L900 451L878.5 451C857 451 814 451 771.2 451C728.3 451 685.7 451 642.8 451C600 451 557 451 514.2 451C471.3 451 428.7 451 385.8 451C343 451 300 451 257.2 451C214.3 451 171.7 451 128.8 451C86 451 43 451 21.5 451L0 451Z" fill="#22223b"></path><path d="M0 353L21.5 346C43 339 86 325 128.8 316.5C171.7 308 214.3 305 257.2 309.7C300 314.3 343 326.7 385.8 328.2C428.7 329.7 471.3 320.3 514.2 322C557 323.7 600 336.3 642.8 338.2C685.7 340 728.3 331 771.2 329.3C814 327.7 857 333.3 878.5 336.2L900 339L900 451L878.5 451C857 451 814 451 771.2 451C728.3 451 685.7 451 642.8 451C600 451 557 451 514.2 451C471.3 451 428.7 451 385.8 451C343 451 300 451 257.2 451C214.3 451 171.7 451 128.8 451C86 451 43 451 21.5 451L0 451Z" fill="#63335e"></path><path d="M0 340L21.5 345C43 350 86 360 128.8 360.7C171.7 361.3 214.3 352.7 257.2 347.3C300 342 343 340 385.8 343.5C428.7 347 471.3 356 514.2 363.5C557 371 600 377 642.8 372.5C685.7 368 728.3 353 771.2 346.8C814 340.7 857 343.3 878.5 344.7L900 346L900 451L878.5 451C857 451 814 451 771.2 451C728.3 451 685.7 451 642.8 451C600 451 557 451 514.2 451C471.3 451 428.7 451 385.8 451C343 451 300 451 257.2 451C214.3 451 171.7 451 128.8 451C86 451 43 451 21.5 451L0 451Z" fill="#ae3f61"></path><path d="M0 397L21.5 397.8C43 398.7 86 400.3 128.8 398.5C171.7 396.7 214.3 391.3 257.2 386C300 380.7 343 375.3 385.8 371.5C428.7 367.7 471.3 365.3 514.2 366.3C557 367.3 600 371.7 642.8 377C685.7 382.3 728.3 388.7 771.2 391.5C814 394.3 857 393.7 878.5 393.3L900 393L900 451L878.5 451C857 451 814 451 771.2 451C728.3 451 685.7 451 642.8 451C600 451 557 451 514.2 451C471.3 451 428.7 451 385.8 451C343 451 300 451 257.2 451C214.3 451 171.7 451 128.8 451C86 451 43 451 21.5 451L0 451Z" fill="#e46345"></path><path d="M0 412L21.5 408.8C43 405.7 86 399.3 128.8 400.8C171.7 402.3 214.3 411.7 257.2 417.7C300 423.7 343 426.3 385.8 423C428.7 419.7 471.3 410.3 514.2 410.3C557 410.3 600 419.7 642.8 421.3C685.7 423 728.3 417 771.2 414C814 411 857 411 878.5 411L900 411L900 451L878.5 451C857 451 814 451 771.2 451C728.3 451 685.7 451 642.8 451C600 451 557 451 514.2 451C471.3 451 428.7 451 385.8 451C343 451 300 451 257.2 451C214.3 451 171.7 451 128.8 451C86 451 43 451 21.5 451L0 451Z" fill="#f0a202"></path></svg>