<svg id="visual" viewBox="0 0 900 450" width="900" height="450" xmlns="http://www.w3.org/2000/svg" xmlns:xlink="http://www.w3.org/1999/xlink" version="1.1"><rect x="0" y="0" width="900" height="450" fill="#22223B"></rect><path d="M0 183L21.5 178.5C43 174 86 165 128.8 155.3C171.7 145.7 214.3 135.3 257.2 130C300 124.7 343 124.3 385.8 127.5C428.7 130.7 471.3 137.3 514.2 145.5C557 153.7 600 163.3 642.8 159.8C685.7 156.3 728.3 139.7 771.2 129.7C814 119.7 857 116.3 878.5 114.7L900 113L900 0L878.5 0C857 0 814 0 771.2 0C728.3 0 685.7 0 642.8 0C600 0 557 0 514.2 0C471.3 0 428.7 0 385.8 0C343 0 300 0 257.2 0C214.3 0 171.7 0 128.8 0C86 0 43 0 21.5 0L0 0Z" fill="#22223b"></path><path d="M0 95L21.5 102C43 109 86 123 128.8 131.5C171.7 140 214.3 143 257.2 138.3C300 133.7 343 121.3 385.8 119.8C428.7 118.3 471.3 127.7 514.2 126C557 124.3 600 111.7 642.8 109.8C685.7 108 728.3 117 771.2 118.7C814 120.3 857 114.7 878.5 111.8L900 109L900 0L878.5 0C857 0 814 0 771.2 0C728.3 0 685.7 0 642.8 0C600 0 557 0 514.2 0C471.3 0 428.7 0 385.8 0C343 0 300 0 257.2 0C214.3 0 171.7 0 128.8 0C86 0 43 0 21.5 0L0 0Z" fill="#63335e"></path><path d="M0 108L21.5 103C43 98 86 88 128.8 87.3C171.7 86.7 214.3 95.3 257.2 100.7C300 106 343 108 385.8 104.5C428.7 101 471.3 92 514.2 84.5C557 77 600 71 642.8 75.5C685.7 80 728.3 95 771.2 101.2C814 107.3 857 104.7 878.5 103.3L900 102L900 0L878.5 0C857 0 814 0 771.2 0C728.3 0 685.7 0 642.8 0C600 0 557 0 514.2 0C471.3 0 428.7 0 385.8 0C343 0 300 0 257.2 0C214.3 0 171.7 0 128.8 0C86 0 43 0 21.5 0L0 0Z" fill="#ae3f61"></path><path d="M0 51L21.5 50.2C43 49.3 86 47.7 128.8 49.5C171.7 51.3 214.3 56.7 257.2 62C300 67.3 343 72.7 385.8 76.5C428.7 80.3 471.3 82.7 514.2 81.7C557 80.7 600 76.3 642.8 71C685.7 65.7 728.3 59.3 771.2 56.5C814 53.7 857 54.3 878.5 54.7L900 55L900 0L878.5 0C857 0 814 0 771.2 0C728.3 0 685.7 0 642.8 0C600 0 557 0 514.2 0C471.3 0 428.7 0 385.8 0C343 0 300 0 257.2 0C214.3 0 171.7 0 128.8 0C86 0 43 0 21.5 0L0 0Z" fill="#e46345"></path><path d="M0 36L21.5 39.2C43 42.3 86 48.7 128.8 47.2C171.7 45.7 214.3 36.3 257.2 30.3C300 24.3 343 21.7 385.8 25C428.7 28.3 471.3 37.7 514.2 37.7C557 37.7 600 28.3 642.8 26.7C685.7 25 728.3 31 771.2 34C814 37 857 37 878.5 37L900 37L900 0L878.5 0C857 0 814 0 771.2 0C728.3 0 685.7 0 642.8 0C600 0 557 0 514.2 0C471.3 0 428.7 0 385.8 0C343 0 300 0 257.2 0C214.3 0 171.7 0 128.8 0C86 0 43 0 21.5 0L0 0Z" fill="#f0a202"></path></svg>